<?xml version="1.0" standalone="no"?>
<!DOCTYPE svg PUBLIC "-//W3C//DTD SVG 20010904//EN"
 "http://www.w3.org/TR/2001/REC-SVG-20010904/DTD/svg10.dtd">
<svg version="1.0" xmlns="http://www.w3.org/2000/svg"
 width="512.000000pt" height="512.000000pt" viewBox="0 0 512.000000 512.000000"
 preserveAspectRatio="xMidYMid meet">
<metadata>
Created by potrace 1.14, written by Peter Selinger 2001-2017
</metadata>
<g transform="translate(0.000000,512.000000) scale(0.100000,-0.100000)"
fill="#000000" stroke="none">
<path d="M930 4563 c0 -7 -8 -12 -17 -12 -46 -1 -93 -8 -99 -14 -12 -12 -26
-8 -17 6 4 6 -5 4 -20 -6 -19 -12 -27 -14 -27 -5 0 8 -3 9 -8 3 -4 -6 -26 -10
-50 -10 -24 1 -45 -3 -48 -7 -3 -5 -12 -4 -20 3 -11 9 -14 9 -14 0 0 -7 -4 -9
-10 -6 -5 3 -10 2 -10 -3 0 -5 -15 -13 -32 -17 -18 -4 -35 -8 -38 -9 -3 -1
-10 -5 -17 -9 -6 -4 -23 -8 -38 -9 -15 -2 -30 -8 -32 -15 -3 -7 -9 -10 -14 -7
-5 2 -18 0 -30 -7 -15 -7 -19 -8 -15 0 5 7 1 9 -8 5 -9 -3 -16 -10 -16 -14 0
-5 -9 -6 -20 -3 -11 3 -20 0 -20 -6 0 -6 -7 -11 -15 -11 -8 0 -15 -5 -15 -12
0 -6 -3 -8 -7 -5 -3 4 -21 -8 -39 -27 -18 -19 -35 -32 -38 -30 -3 2 -4 1 -1
-3 3 -3 -2 -15 -12 -25 -9 -10 -13 -18 -9 -18 4 0 -1 -13 -11 -30 -9 -16 -21
-30 -26 -30 -4 0 -5 -4 -2 -10 3 -5 1 -10 -5 -10 -6 0 -9 -4 -6 -9 4 -5 3 -11
-1 -13 -5 -1 -16 -20 -25 -40 -13 -27 -14 -38 -5 -42 9 -3 8 -5 -1 -5 -7 -1
-10 -6 -6 -12 3 -6 0 -15 -7 -20 -8 -5 -9 -9 -3 -9 6 0 12 -12 13 -27 4 -60 8
-77 19 -81 7 -2 12 -8 12 -13 0 -6 -6 -7 -12 -4 -7 4 -3 -2 9 -13 12 -11 19
-22 16 -26 -4 -3 -2 -6 4 -6 10 0 26 -36 24 -52 -1 -5 4 -8 10 -8 5 0 7 -4 4
-10 -3 -5 -1 -10 5 -10 6 0 8 -4 5 -10 -3 -5 1 -10 10 -10 9 0 13 -4 10 -10
-3 -5 -2 -10 4 -10 5 0 13 -9 16 -20 4 -11 10 -18 15 -15 4 3 10 -2 14 -10 3
-8 12 -15 21 -15 8 0 15 -4 15 -10 0 -5 9 -10 20 -10 11 0 20 -4 20 -8 0 -4
12 -9 28 -10 15 -1 28 -6 30 -12 2 -5 10 -6 18 -3 8 3 14 -1 14 -8 0 -11 2
-11 10 1 8 13 10 13 15 -1 5 -14 35 -22 83 -21 12 0 22 -5 22 -11 0 -7 4 -7
12 1 15 15 31 16 22 0 -5 -7 -3 -8 7 -2 22 14 49 15 71 3 12 -7 18 -7 14 -1
-4 7 9 9 34 7 22 -2 43 1 46 6 3 6 11 5 20 -2 9 -7 14 -8 14 -1 0 7 10 8 30 2
16 -5 32 -5 35 -1 5 8 46 5 75 -6 18 -7 29 -9 53 -11 12 -1 15 -6 11 -14 -5
-9 -2 -9 9 1 13 10 17 10 17 1 0 -10 3 -10 14 -1 10 9 16 9 21 1 5 -8 11 -8
21 1 8 6 14 7 14 2 0 -5 15 -9 33 -8 17 1 36 -1 41 -3 5 -3 44 -5 87 -5 48 0
79 -4 79 -11 0 -6 5 -5 12 2 9 9 15 9 27 -1 12 -10 13 -9 6 2 -6 11 -3 13 13
9 12 -4 24 -2 27 2 3 5 17 7 30 4 14 -2 25 0 25 6 0 6 5 8 10 5 6 -4 7 -12 3
-18 -4 -7 0 -6 10 2 9 7 17 10 17 7 0 -4 10 -2 21 5 17 9 20 8 14 -2 -5 -8 -4
-10 4 -5 19 12 61 14 67 4 3 -4 11 -5 17 -1 18 11 117 11 117 0 0 -6 5 -6 13
0 14 11 132 11 143 0 4 -4 13 -2 21 5 8 6 45 12 83 13 39 1 73 5 76 8 4 3 14
3 23 -1 14 -7 86 -8 101 -2 15 5 51 6 55 0 3 -5 90 -6 90 0 0 1 17 3 37 5 22
1 35 -2 32 -7 -4 -7 0 -7 12 -1 27 14 230 17 239 4 4 -8 12 -8 24 -1 14 7 23
5 35 -9 15 -16 14 -17 -12 -19 -15 -1 -49 -4 -77 -7 -27 -2 -58 -5 -67 -6 -10
0 -18 -6 -18 -12 0 -7 -4 -6 -10 3 -7 11 -10 11 -10 2 0 -7 -5 -10 -10 -7 -6
4 -17 1 -25 -5 -12 -10 -15 -10 -15 0 0 9 -4 9 -13 3 -6 -6 -20 -9 -29 -8 -10
2 -18 -2 -18 -8 0 -8 -4 -7 -12 1 -15 15 -31 16 -22 0 5 -7 2 -9 -8 -5 -9 3
-19 3 -22 -1 -7 -7 -33 -13 -56 -14 -8 0 -30 -7 -48 -15 -18 -8 -40 -12 -48
-9 -9 3 -12 1 -9 -4 4 -6 -7 -11 -24 -11 -40 -2 -43 -3 -60 -13 -11 -7 -12 -6
-6 5 8 12 6 12 -8 1 -9 -8 -21 -11 -27 -7 -5 3 -10 0 -10 -7 0 -11 -2 -10 -9
0 -7 11 -9 11 -14 -1 -3 -10 -14 -13 -31 -10 -16 3 -26 1 -26 -6 0 -7 -4 -9
-10 -6 -5 3 -10 2 -10 -4 0 -6 -7 -7 -17 -4 -11 4 -14 3 -9 -5 5 -8 -1 -12
-18 -12 -14 0 -31 -9 -39 -20 -12 -18 -15 -18 -20 -5 -4 8 -16 15 -27 15 -12
0 -18 4 -15 10 3 5 -1 10 -9 10 -9 0 -16 5 -16 11 0 8 -5 7 -16 -1 -12 -11
-15 -11 -12 1 2 8 -3 13 -9 12 -7 -2 -13 1 -13 5 0 9 -7 10 -55 13 -14 1 -25
4 -25 8 0 6 -26 11 -67 14 -7 0 -13 3 -13 6 0 3 -21 7 -46 9 -25 1 -54 7 -64
12 -13 7 -20 6 -23 -3 -4 -7 -6 -6 -6 5 -1 11 -7 15 -23 10 -16 -4 -19 -2 -13
9 7 12 6 12 -7 1 -9 -7 -19 -9 -22 -4 -3 5 -19 8 -35 7 -19 -1 -28 2 -24 9 4
6 0 5 -8 -1 -12 -10 -18 -10 -29 0 -10 9 -11 9 -6 0 7 -12 -20 -18 -71 -16 -7
1 -13 -3 -13 -8 0 -5 -7 -5 -17 -2 -11 4 -14 3 -9 -5 6 -10 -3 -16 -24 -14 -3
0 -6 -12 -7 -26 -1 -15 -7 -49 -14 -77 -6 -27 -12 -58 -12 -67 -1 -10 -5 -18
-10 -18 -4 0 -5 -5 -2 -10 4 -6 1 -17 -5 -25 -9 -11 -9 -15 -1 -15 8 0 9 -5 1
-19 -13 -26 -13 -44 2 -35 7 5 8 3 2 -7 -9 -15 -11 -20 -13 -45 -1 -9 -6 -12
-13 -8 -10 6 -10 5 -1 -7 7 -9 8 -20 3 -29 -4 -7 -4 -23 0 -35 5 -14 4 -27 -2
-33 -8 -8 -8 -15 0 -25 7 -8 8 -17 4 -21 -11 -12 -9 -160 3 -168 7 -5 6 -8 -2
-8 -6 0 -10 -13 -9 -29 1 -16 -2 -29 -7 -28 -5 1 -11 -7 -12 -18 -4 -33 -9
-49 -22 -62 -6 -7 -10 -22 -8 -33 2 -11 0 -18 -4 -15 -8 4 -19 -33 -24 -77 -1
-10 -5 -18 -10 -18 -5 0 -7 -7 -4 -15 4 -8 2 -17 -3 -20 -6 -4 -6 -14 1 -27
10 -18 9 -20 -5 -15 -10 4 -14 3 -11 -2 3 -5 1 -12 -5 -16 -5 -3 -10 3 -10 14
0 12 -7 21 -15 21 -14 0 -19 12 -16 33 0 4 -4 7 -10 7 -6 0 -8 7 -5 16 3 8 2
12 -4 9 -6 -3 -10 -1 -10 4 0 6 -7 11 -15 11 -9 0 -18 6 -21 14 -3 8 -13 12
-25 9 -11 -3 -19 0 -19 7 0 9 -4 9 -12 3 -7 -6 -21 -9 -31 -8 -9 2 -15 -1 -12
-5 3 -5 -4 -11 -15 -15 -11 -4 -18 -11 -15 -16 4 -5 1 -9 -4 -9 -6 0 -11 -7
-11 -16 0 -9 -5 -12 -12 -8 -8 5 -9 2 -5 -9 7 -18 -7 -21 -63 -18 -55 3 -80 0
-75 -10 3 -4 -2 -10 -11 -13 -8 -3 -12 -10 -9 -16 3 -5 1 -10 -5 -10 -7 0 -10
-7 -6 -15 3 -8 1 -15 -5 -15 -6 0 -8 -3 -6 -7 9 -15 -13 -54 -24 -47 -7 4 -9
3 -5 -4 3 -5 1 -12 -5 -14 -16 -5 -21 -149 -6 -167 9 -12 9 -13 0 -7 -9 5 -11
2 -7 -8 3 -8 19 -20 35 -26 25 -11 27 -15 17 -28 -11 -13 -10 -15 5 -9 9 3 17
2 17 -3 0 -6 6 -10 14 -10 7 0 19 -7 26 -15 7 -8 15 -13 19 -11 8 5 25 -15 29
-34 2 -7 12 -21 23 -31 21 -18 26 -34 7 -24 -7 4 -6 1 3 -7 9 -7 14 -19 12
-25 -3 -7 1 -13 8 -13 7 0 9 -3 6 -7 -4 -3 0 -17 9 -31 8 -13 13 -26 10 -29
-3 -3 2 -12 12 -20 11 -10 12 -12 2 -8 -8 4 -5 -2 8 -13 15 -14 18 -22 10 -25
-8 -3 -6 -6 5 -6 10 -1 16 -5 13 -10 -3 -5 1 -12 10 -15 9 -4 14 -13 10 -22
-3 -8 -2 -13 3 -10 5 3 15 -2 22 -11 12 -14 12 -16 0 -8 -10 5 -12 4 -7 -3 4
-7 14 -12 23 -12 13 0 14 -2 2 -17 -10 -11 -10 -14 -1 -9 7 4 12 1 12 -8 0 -9
5 -16 10 -16 6 0 10 -7 10 -15 0 -8 5 -15 10 -15 6 0 10 -7 10 -15 0 -8 5 -15
11 -15 5 0 7 -4 4 -10 -3 -5 1 -10 9 -10 9 0 15 -6 14 -12 -2 -7 3 -12 10 -10
8 1 11 -2 7 -8 -8 -13 34 -60 54 -60 11 0 11 -3 0 -17 -13 -15 -12 -16 9 -11
12 4 20 2 17 -2 -7 -11 24 -42 36 -35 5 4 9 -1 9 -9 0 -9 7 -16 15 -16 9 0 18
-6 21 -14 3 -8 14 -12 27 -9 18 4 19 3 7 -6 -13 -9 -12 -11 4 -11 10 0 26 -8
35 -18 9 -10 27 -26 41 -35 14 -10 25 -23 25 -30 0 -6 10 -11 23 -11 13 1 22
-4 22 -14 0 -12 3 -12 15 -2 13 11 14 10 9 -3 -4 -11 0 -15 13 -13 10 2 24 -4
31 -13 11 -13 12 -13 7 -1 -4 8 1 6 9 -4 12 -15 13 -22 4 -27 -7 -5 -10 -11
-6 -14 3 -4 -1 -15 -9 -25 -18 -21 -27 -74 -11 -64 5 4 3 -5 -6 -18 -9 -13
-17 -36 -18 -51 -1 -15 -7 -27 -13 -27 -5 0 -3 -5 5 -10 8 -5 10 -10 5 -10
-10 0 -13 -20 -16 -112 -1 -21 -5 -35 -10 -32 -5 3 -5 -6 0 -19 5 -14 6 -28 1
-33 -11 -13 -19 -94 -9 -94 5 0 9 -5 9 -11 0 -5 -6 -7 -12 -4 -7 4 -5 0 5 -8
10 -9 18 -19 18 -24 1 -4 3 -10 6 -13 4 -3 3 1 -1 8 -4 6 -2 12 3 12 6 0 11
-4 11 -10 0 -5 6 -10 13 -10 7 0 23 -9 35 -21 12 -11 38 -21 57 -22 19 -1 35
-6 35 -11 0 -5 6 -4 12 1 20 14 108 14 108 0 0 -7 4 -6 10 3 8 12 10 12 10 1
0 -10 3 -11 13 -2 10 8 17 7 26 -2 9 -9 14 -9 21 3 9 13 10 13 10 0 0 -10 3
-11 8 -4 4 6 15 10 25 8 9 -1 17 2 17 7 0 6 5 7 10 4 6 -4 17 -1 25 5 8 7 15
9 15 5 0 -4 7 -2 16 6 18 15 161 21 170 7 3 -5 12 -4 20 3 11 9 14 9 14 0 0
-8 5 -9 19 -1 14 7 22 7 26 0 4 -6 12 -7 18 -3 17 10 47 11 53 1 3 -4 14 -4
24 2 12 6 21 7 25 0 3 -6 15 -6 29 0 13 5 27 6 30 3 3 -3 23 -7 43 -9 21 -1
40 -3 43 -4 3 -1 22 -1 43 0 20 1 37 -3 37 -8 0 -11 18 -11 37 1 9 6 11 3 6
-10 -6 -15 -4 -16 8 -6 12 10 18 10 27 1 9 -9 12 -9 12 2 0 13 2 13 10 0 8
-12 10 -12 10 -1 0 11 3 11 17 0 14 -12 16 -12 8 0 -6 11 -2 13 19 7 18 -4 25
-3 21 4 -4 6 2 7 17 2 26 -9 60 -8 77 2 6 4 11 3 11 -2 0 -5 13 -9 30 -9 18 0
27 4 23 11 -5 8 -2 8 8 0 22 -17 59 -24 59 -11 0 8 4 7 9 -2 7 -11 10 -11 15
0 4 10 7 11 12 2 3 -7 12 -9 20 -6 8 3 21 0 29 -7 12 -10 15 -10 15 0 0 9 4 9
17 -1 15 -12 16 -12 8 1 -8 13 -7 13 9 1 15 -13 19 -13 27 0 7 11 9 11 9 0 0
-10 3 -11 14 -2 11 9 15 9 19 -1 4 -9 6 -10 6 -1 1 7 8 10 16 7 8 -4 15 -1 15
6 0 6 5 8 12 3 18 -11 52 -10 60 2 5 6 8 5 8 -2 0 -9 7 -10 23 -5 27 10 68 9
85 -1 6 -5 12 -4 12 1 0 6 14 7 37 2 20 -5 40 -7 44 -4 4 2 10 1 13 -4 2 -4
24 -9 47 -11 23 -1 46 -4 51 -7 4 -3 8 0 8 6 0 6 5 8 10 5 6 -3 15 -3 22 1 7
4 23 9 36 10 13 2 29 7 36 13 9 7 16 7 24 -1 9 -9 12 -9 12 1 0 7 5 9 10 6 6
-3 10 -1 10 4 0 6 5 11 11 11 5 0 7 -6 3 -12 -6 -10 -5 -10 8 -1 8 7 18 10 21
6 4 -3 7 0 7 8 0 11 2 11 10 -1 5 -8 10 -10 10 -4 0 6 12 10 28 10 15 -1 35 2
44 6 10 5 18 3 21 -5 4 -9 6 -9 6 1 1 7 6 10 11 7 6 -4 17 -1 25 5 12 10 15
10 15 -1 0 -9 3 -10 8 -4 7 10 27 17 50 18 6 0 12 4 12 9 0 5 5 6 10 3 6 -3
10 -2 10 2 0 5 11 9 25 9 14 0 25 -3 25 -7 0 -4 7 -10 16 -13 9 -3 12 -2 8 5
-4 7 0 7 12 1 34 -17 82 -36 109 -42 6 -1 16 -6 23 -12 8 -8 12 -7 12 3 0 11
2 11 10 -1 5 -8 10 -10 10 -4 0 7 6 12 13 11 36 -1 57 4 52 13 -3 6 4 10 17
11 43 1 70 9 98 29 15 11 30 16 34 12 4 -4 6 -2 4 3 -2 6 0 11 5 12 15 5 35
28 30 36 -2 4 3 7 11 7 8 0 18 9 21 20 4 11 10 18 15 15 4 -3 13 9 19 25 5 17
14 30 19 30 5 0 17 18 28 40 10 22 22 40 27 40 4 0 7 9 7 21 0 11 4 17 10 14
5 -3 12 6 16 20 3 14 10 25 14 25 5 0 12 9 15 21 4 12 14 30 24 40 9 11 25 34
36 53 11 18 32 51 47 74 15 22 30 52 34 66 3 14 10 26 15 26 5 0 6 6 3 14 -3
8 0 17 5 21 6 3 9 11 6 16 -4 5 -2 9 3 9 9 0 12 15 13 58 1 12 4 22 8 22 7 0
6 82 -3 124 -3 16 -11 33 -18 38 -7 4 -9 8 -5 8 15 0 -15 41 -44 59 -16 10
-26 22 -21 27 4 4 -1 2 -10 -5 -13 -9 -18 -10 -18 -2 0 9 -5 9 -20 1 -11 -6
-20 -8 -20 -4 0 3 -6 1 -13 -5 -8 -6 -17 -8 -20 -4 -4 3 -7 1 -7 -5 0 -7 -3
-11 -7 -10 -12 4 -53 -35 -47 -44 3 -4 -2 -8 -11 -8 -9 0 -13 -5 -10 -10 4 -6
1 -18 -7 -27 -11 -14 -11 -16 2 -9 13 6 13 6 0 -6 -9 -7 -15 -23 -14 -35 1
-13 -3 -23 -8 -23 -5 0 -6 -5 -3 -10 3 -5 1 -10 -5 -10 -6 0 -8 -4 -5 -10 3
-5 1 -10 -4 -10 -6 0 -11 -9 -11 -20 0 -11 -5 -20 -11 -20 -5 0 -7 -4 -4 -10
3 -5 1 -10 -4 -10 -6 0 -11 -3 -10 -7 2 -16 -14 -53 -22 -53 -5 0 -9 -7 -9
-15 0 -8 -6 -15 -12 -15 -10 0 -9 -3 1 -9 7 -5 9 -10 5 -12 -15 -7 -54 -90
-47 -101 3 -7 1 -8 -5 -4 -7 4 -12 2 -12 -5 0 -6 -8 -18 -17 -26 -10 -8 -11
-11 -3 -7 8 5 5 -4 -8 -20 -12 -16 -22 -35 -22 -42 0 -8 -4 -14 -10 -14 -5 0
-7 -7 -3 -16 5 -14 3 -15 -16 -5 -12 7 -19 16 -16 22 4 5 1 9 -4 9 -6 0 -11 9
-11 19 0 11 -6 22 -12 24 -10 4 -10 6 1 6 8 1 5 9 -10 22 -13 11 -17 17 -9 13
12 -7 13 -5 3 8 -7 8 -10 18 -6 21 3 4 1 7 -6 7 -7 0 -10 4 -6 9 3 5 1 12 -5
16 -5 3 -10 11 -10 16 0 6 5 7 12 3 7 -4 8 -3 4 5 -4 6 -11 9 -16 6 -9 -6 -20
18 -20 46 0 13 -4 18 -12 13 -8 -5 -9 -2 -5 9 4 10 1 17 -5 17 -6 0 -8 3 -5 6
4 4 -3 15 -15 25 -11 11 -16 19 -9 19 8 0 7 5 -3 16 -9 8 -14 20 -11 25 4 5 1
9 -5 9 -6 0 -8 5 -5 10 3 6 1 10 -5 10 -6 0 -8 5 -5 10 3 5 1 10 -5 10 -6 0
-8 5 -5 10 3 6 1 10 -5 10 -6 0 -8 4 -5 10 3 5 1 10 -5 10 -6 0 -8 5 -5 10 3
6 0 10 -7 10 -10 0 -9 3 2 9 8 6 18 7 22 5 4 -3 8 -1 8 3 0 5 9 10 20 11 11 1
29 3 39 4 11 1 19 7 18 13 -1 5 6 9 15 9 10 -1 15 2 13 7 -3 4 4 13 15 19 11
6 17 16 14 22 -4 7 -3 8 4 4 7 -4 12 -2 12 4 0 6 5 8 10 5 9 -6 14 7 11 27 0
4 6 5 15 1 9 -3 14 0 12 8 -2 8 3 13 11 11 9 -2 11 3 7 13 -3 9 -2 14 3 10 5
-3 11 0 13 7 2 6 12 12 21 14 9 1 15 -2 11 -7 -3 -5 -11 -7 -17 -3 -7 3 -4 -1
7 -10 10 -8 16 -22 13 -31 -4 -8 -2 -15 4 -15 6 0 8 -7 5 -15 -3 -9 1 -18 10
-22 8 -3 13 -12 10 -19 -3 -8 -1 -14 4 -14 6 0 10 -7 10 -15 0 -12 10 -15 39
-14 38 3 38 3 38 46 0 23 -4 40 -8 37 -8 -5 -13 10 -10 29 0 4 -7 7 -17 7 -14
0 -15 2 -2 10 11 7 11 10 2 10 -7 0 -10 5 -7 10 3 6 1 10 -6 10 -10 0 -10 3
-1 12 15 15 16 32 2 23 -9 -5 -12 8 -9 31 0 4 -5 10 -12 15 -10 6 -8 14 11 33
13 15 19 26 13 26 -6 0 -14 -6 -16 -12 -4 -10 -6 -10 -6 -1 -1 6 9 19 21 27
12 9 19 16 14 16 -5 0 -3 7 4 15 6 8 9 19 5 25 -3 5 -1 10 4 10 6 0 10 3 9 8
0 4 2 15 5 25 4 9 9 24 12 33 3 9 10 12 17 8 8 -5 9 -1 5 12 -6 17 -6 17 5 3
7 -9 19 -14 27 -11 8 3 11 0 7 -7 -4 -6 -2 -11 4 -11 6 0 8 -4 5 -10 -3 -5 0
-7 8 -4 8 3 18 0 23 -7 5 -8 3 -10 -6 -4 -9 5 -11 4 -6 -3 4 -7 14 -12 22 -12
8 0 12 -4 9 -10 -3 -5 0 -10 8 -10 8 0 19 -10 25 -22 6 -13 11 -17 11 -10 1 6
6 12 12 12 5 0 7 -5 4 -11 -4 -6 2 -5 14 3 25 15 28 59 6 81 -8 8 -11 18 -7
22 4 5 1 5 -6 1 -7 -4 -15 -1 -18 8 -3 9 -12 16 -20 16 -8 0 -14 7 -14 16 0
11 -5 14 -17 10 -10 -4 -14 -4 -11 0 10 9 -17 34 -36 34 -9 0 -16 5 -16 11 0
5 -5 7 -11 3 -8 -5 -8 -1 0 13 6 11 7 23 4 27 -3 3 -2 6 3 6 11 0 11 60 0 79
-6 10 -5 12 2 7 12 -7 16 5 13 32 -1 6 3 12 9 12 7 0 7 6 -1 21 -6 12 -7 19
-2 16 5 -3 17 3 26 14 13 14 22 17 35 10 11 -6 24 -6 35 0 12 7 17 6 17 -1 0
-7 7 -5 16 4 8 9 21 13 27 9 7 -3 9 -3 5 2 -4 4 4 16 17 27 14 11 22 25 18 31
-3 7 -3 9 1 5 10 -8 47 23 40 34 -3 4 0 8 6 8 7 0 10 6 7 13 -2 6 0 20 5 29 7
14 5 16 -8 11 -11 -4 -15 -2 -11 4 4 6 1 13 -6 16 -19 7 -77 -23 -77 -39 0 -8
-5 -14 -11 -14 -5 0 -8 -4 -4 -9 3 -5 -4 -13 -16 -16 -13 -4 -18 -12 -15 -21
3 -9 1 -12 -5 -9 -5 4 -16 2 -24 -5 -10 -8 -15 -8 -21 1 -5 8 -3 9 6 4 9 -6
11 -4 5 4 -5 9 -11 9 -17 3 -12 -12 -38 -5 -38 10 0 5 5 6 11 2 8 -4 8 -1 2
12 -4 11 -8 76 -8 147 1 81 -3 127 -10 127 -5 0 -3 5 5 10 12 7 12 10 1 10 -7
0 -11 6 -8 15 4 8 1 17 -5 21 -7 4 -6 9 3 15 12 7 12 9 0 9 -7 0 -11 6 -7 15
3 8 1 15 -4 15 -6 0 -10 9 -10 20 0 11 -4 20 -10 20 -5 0 -10 9 -10 20 0 11
-5 20 -11 20 -6 0 -9 7 -5 15 3 10 -1 15 -12 16 -10 0 -12 3 -5 6 10 3 10 7 0
18 -7 7 -15 11 -19 8 -4 -2 -5 3 -2 11 3 9 1 16 -6 16 -6 0 -8 5 -5 10 3 6 0
10 -8 10 -8 0 -18 12 -21 26 -4 15 -14 33 -21 41 -8 8 -15 23 -15 33 0 10 -7
21 -16 24 -8 3 -13 10 -9 15 3 5 1 12 -5 16 -6 4 -8 11 -5 16 4 5 1 9 -6 9 -6
0 -9 8 -6 20 3 11 0 18 -7 17 -6 -1 -11 8 -10 21 0 12 -3 22 -7 22 -5 0 -5 7
-2 17 5 12 3 14 -7 8 -10 -6 -12 -3 -7 14 3 14 -1 24 -13 31 -12 7 -16 17 -13
31 5 16 3 20 -7 14 -8 -5 -11 -3 -8 6 3 8 -2 20 -11 27 -13 11 -13 12 -1 6 8
-4 5 4 -7 18 -13 13 -23 32 -23 41 0 9 -4 17 -8 17 -7 0 -11 18 -13 63 0 9 -4
17 -8 17 -4 0 -8 7 -8 15 0 8 4 12 9 9 4 -3 8 1 8 8 0 9 3 9 10 -2 7 -11 10
-11 10 -2 0 10 5 10 20 2 15 -8 20 -8 20 2 0 9 3 9 10 -2 5 -8 10 -10 10 -4 0
14 32 13 42 -1 5 -6 8 -6 8 1 0 8 11 9 35 4 19 -4 35 -4 35 1 0 10 31 0 45
-16 10 -11 17 -31 18 -52 0 -7 4 -13 8 -13 4 0 6 -13 5 -30 -1 -16 3 -32 8
-34 7 -3 7 -5 1 -5 -5 -1 -9 -18 -9 -39 1 -21 -6 -55 -16 -75 -10 -20 -13 -34
-7 -30 9 5 9 3 1 -8 -13 -16 -1 -59 16 -59 6 0 9 -4 6 -8 -3 -5 12 -9 34 -9
22 0 37 4 34 9 -3 4 2 8 10 8 8 0 21 10 27 22 7 13 18 29 26 36 7 7 13 19 13
27 0 7 7 16 16 19 9 3 14 13 11 20 -3 8 -2 16 2 18 26 11 97 149 84 162 -4 3
-2 6 3 6 5 0 9 20 8 45 -1 39 3 48 26 65 16 11 33 20 38 20 5 0 13 7 16 16 3
9 11 12 18 8 7 -4 10 -4 6 0 -8 9 36 56 52 56 5 0 10 7 10 15 0 8 3 14 8 14
19 -3 33 2 27 10 -3 6 1 13 9 18 20 12 58 83 52 99 -3 7 0 14 6 16 13 5 17
108 4 108 -5 0 -3 7 4 15 10 12 10 15 -1 15 -11 0 -11 2 -2 8 7 4 11 19 8 32
-2 13 0 29 5 35 7 9 6 16 -4 24 -8 7 -12 19 -9 27 3 8 0 14 -7 14 -7 0 -10 7
-6 15 3 8 0 18 -7 22 -7 5 -12 15 -12 23 0 8 -6 14 -12 13 -7 -2 -12 0 -12 5
3 19 -2 33 -11 27 -5 -3 -10 1 -10 9 0 9 -6 15 -12 13 -7 -1 -12 4 -10 11 1 8
-2 11 -8 7 -5 -3 -13 0 -16 9 -3 8 -12 12 -20 9 -8 -3 -14 1 -14 11 0 9 -6 16
-13 16 -7 0 -19 9 -27 20 -8 11 -20 20 -27 20 -7 0 -13 5 -13 12 0 6 -3 8 -7
5 -3 -4 -17 0 -31 9 -13 9 -21 11 -17 4 4 -7 -4 -4 -19 5 -16 11 -26 13 -26 6
0 -8 -6 -9 -17 -4 -10 5 -31 8 -48 8 -16 0 -33 4 -36 8 -5 7 -76 13 -89 7 -3
-1 -37 -3 -75 -4 -39 -1 -76 -5 -82 -9 -6 -4 -14 -4 -16 1 -3 4 -53 7 -111 6
-79 -2 -104 1 -99 9 5 9 3 9 -8 1 -8 -7 -54 -11 -117 -10 -56 0 -102 -1 -102
-4 0 -3 -58 -5 -130 -4 -72 0 -130 -2 -130 -6 0 -4 -20 -6 -45 -5 -26 2 -45
-1 -45 -7 0 -7 -5 -6 -13 1 -8 6 -16 9 -18 7 -10 -11 -59 -14 -65 -5 -4 6 -11
6 -20 -2 -11 -9 -14 -9 -14 1 0 8 -2 11 -6 8 -3 -3 -21 -2 -40 2 -23 5 -34 4
-34 -4 0 -6 -5 -4 -10 4 -5 8 -10 10 -10 4 0 -8 -11 -9 -37 -4 -20 5 -41 6
-45 4 -5 -3 -14 -1 -21 5 -7 5 -18 6 -26 1 -8 -4 -27 -3 -43 2 -16 6 -32 8
-35 5 -3 -4 -14 -2 -24 4 -14 7 -19 6 -19 -3 0 -9 -3 -9 -10 2 -5 8 -10 10
-10 4 0 -6 -10 -10 -22 -9 -13 1 -29 -2 -35 -7 -7 -6 -20 -8 -28 -4 -8 3 -15
1 -15 -5 0 -6 -4 -8 -9 -4 -5 3 -12 1 -16 -5 -4 -6 -12 -7 -18 -3 -7 4 -35 8
-63 9 -28 0 -55 3 -60 7 -24 14 -184 27 -184 14 0 -4 -5 -5 -11 -2 -6 4 -38 8
-72 9 -34 1 -66 4 -72 7 -16 8 -359 4 -372 -4 -7 -5 -13 -5 -13 0 0 12 -164
10 -172 -2 -5 -6 -8 -6 -8 2 0 7 -7 10 -17 6 -10 -4 -14 -2 -10 4 5 8 -2 9
-20 4 -16 -4 -41 -5 -58 -2 -16 4 -76 6 -132 6 -57 0 -103 2 -103 6 0 6 -44
10 -117 11 -24 0 -41 3 -39 7 6 10 -156 8 -171 -2 -7 -5 -13 -4 -13 1 0 4 -26
7 -57 6 -32 -1 -58 -3 -58 -4 0 -1 -8 -3 -17 -5 -10 -2 -18 1 -18 7 0 7 -5 7
-13 -1 -10 -8 -17 -7 -25 1 -9 9 -12 9 -12 1z m2272 -922 c10 6 18 6 18 0 0
-12 33 -9 42 4 5 6 8 5 8 -4 0 -11 3 -11 15 -1 12 10 15 10 15 -1 0 -9 3 -10
8 -4 9 13 102 14 102 1 0 -4 6 -4 13 2 10 9 19 7 37 -5 13 -9 20 -12 17 -6 -5
7 0 9 13 6 11 -3 17 -10 13 -16 -3 -6 -1 -7 6 -3 6 4 28 10 47 12 27 3 34 1
28 -8 -6 -10 -4 -10 7 -2 16 13 77 13 98 0 9 -6 12 -5 7 2 -4 7 6 9 29 8 19
-2 35 0 35 3 0 4 8 7 18 7 10 0 19 -6 19 -13 0 -7 -4 -10 -8 -7 -4 2 -13 -4
-19 -15 -6 -11 -16 -18 -24 -15 -7 3 -16 -2 -20 -11 -3 -9 -10 -13 -16 -10 -6
3 -13 -1 -16 -9 -3 -9 -13 -16 -21 -16 -8 0 -11 -5 -7 -12 5 -8 2 -9 -9 -5 -9
3 -19 1 -23 -5 -5 -7 -2 -8 7 -3 8 4 5 -1 -6 -12 -11 -11 -24 -18 -29 -15 -5
3 -6 -3 -3 -12 6 -14 3 -17 -9 -12 -12 5 -15 2 -10 -9 3 -9 2 -14 -3 -11 -5 3
-14 -1 -21 -9 -12 -14 -70 -16 -70 -2 0 5 -4 6 -9 2 -5 -3 -17 2 -25 11 -12
12 -16 12 -17 2 0 -10 -2 -10 -6 0 -2 6 -9 10 -14 6 -5 -3 -9 0 -9 6 0 6 -4 9
-9 5 -5 -3 -15 1 -23 8 -7 8 -21 13 -31 11 -9 -1 -17 1 -17 6 0 5 -11 7 -25 5
-14 -1 -25 2 -25 7 0 5 -4 7 -9 4 -5 -3 -14 1 -21 9 -7 8 -21 15 -31 15 -11 0
-19 5 -19 11 0 8 -4 8 -14 0 -8 -7 -15 -8 -18 -2 -1 5 -16 11 -33 13 -16 2
-32 6 -35 10 -3 4 -17 9 -30 11 -14 2 -32 6 -40 10 -8 3 -22 5 -30 5 -23 -1
-44 6 -52 17 -5 6 -8 4 -8 -5 0 -13 -1 -13 -10 0 -9 13 -10 13 -10 0 0 -13 -1
-13 -10 0 -7 10 -13 11 -17 4 -9 -12 -54 -14 -47 -2 3 4 0 8 -5 8 -6 0 -11 -4
-11 -8 0 -4 -9 -8 -20 -8 -11 0 -20 4 -20 9 0 5 -6 5 -12 -1 -9 -6 -19 -4 -32
9 -18 18 -18 18 20 13 21 -3 57 -6 79 -5 22 0 61 1 88 1 26 1 51 -1 55 -4 4
-3 28 0 51 5 24 5 59 10 78 11 19 1 36 5 40 11 3 5 9 5 16 -2 7 -7 16 -7 29 0z"/>
<path d="M690 1508 c-2 -5 -3 -12 -4 -17 -2 -16 -16 -25 -16 -11 0 7 -2 11 -5
8 -10 -10 7 -38 19 -31 6 3 3 -3 -7 -14 -18 -21 -18 -21 0 -26 17 -4 17 -5 -1
-6 -13 -1 -17 -7 -13 -20 2 -10 0 -26 -5 -35 -6 -11 -5 -16 3 -16 9 0 9 -3 0
-14 -8 -10 -9 -16 -1 -21 6 -4 7 -12 1 -24 -6 -10 -6 -23 -1 -31 6 -10 3 -21
-8 -34 -11 -12 -12 -16 -3 -11 11 6 13 3 9 -13 -4 -13 -1 -22 5 -22 7 0 5 -5
-3 -10 -12 -8 -12 -10 -1 -10 8 0 11 -7 8 -20 -3 -13 -1 -18 6 -13 6 4 8 0 4
-10 -3 -10 -2 -17 3 -17 6 0 10 -9 10 -20 0 -11 4 -20 10 -20 5 0 7 -6 4 -14
-3 -8 4 -24 15 -35 12 -12 19 -21 16 -21 -3 0 3 -10 15 -22 11 -13 32 -38 46
-55 14 -18 30 -33 35 -33 5 0 24 -16 43 -36 19 -21 39 -33 46 -29 6 4 18 1 26
-6 12 -10 13 -9 9 4 -4 10 1 17 13 21 17 6 18 10 9 30 -7 14 -15 22 -19 20 -5
-3 -8 3 -8 12 0 10 -3 15 -6 11 -8 -7 -53 36 -47 46 2 4 -1 7 -7 7 -16 0 -40
26 -32 34 3 4 -1 4 -11 0 -13 -5 -17 -1 -17 16 0 11 -4 18 -10 15 -5 -3 -10 0
-10 8 0 8 -7 17 -15 21 -8 3 -12 12 -9 21 4 9 -1 17 -11 21 -13 5 -14 9 -3 15
8 6 9 9 2 9 -7 0 -15 7 -18 16 -4 9 -2 13 5 8 6 -3 3 6 -7 21 -19 28 -27 68
-12 59 10 -6 9 4 -1 31 -5 11 -4 28 1 38 5 9 5 17 0 17 -11 0 -9 30 3 49 5 10
4 12 -3 7 -7 -4 -12 -1 -12 8 0 9 6 16 13 17 6 0 3 4 -8 9 -11 5 -14 9 -7 9 9
1 10 6 2 20 -5 11 -7 27 -4 35 3 9 1 16 -5 16 -6 0 -11 5 -11 11 0 5 5 7 12 3
7 -4 8 -3 4 5 -4 6 -11 9 -16 6 -4 -3 -11 1 -13 7 -3 7 -6 10 -7 6z m140 -618
c0 -5 -2 -10 -4 -10 -3 0 -8 5 -11 10 -3 6 -1 10 4 10 6 0 11 -4 11 -10z"/>
<path d="M927 1293 c3 -8 1 -18 -5 -22 -17 -10 -17 -101 0 -101 4 0 8 -7 8
-15 0 -8 4 -15 10 -15 5 0 7 -6 4 -14 -3 -7 2 -16 11 -20 10 -3 15 -12 11 -21
-3 -8 -1 -15 5 -15 5 0 13 -8 16 -17 9 -24 29 -43 37 -36 3 4 6 1 6 -6 0 -19
50 -33 68 -19 10 8 13 8 9 2 -4 -7 -1 -14 6 -17 16 -6 18 35 3 45 -7 5 -6 8 3
8 8 0 2 9 -13 21 -14 11 -24 25 -20 30 3 5 2 9 -3 8 -4 -1 -14 -1 -22 0 -11 1
-11 4 0 18 10 11 10 14 2 9 -8 -4 -13 -2 -13 6 0 9 -3 9 -10 -2 -8 -12 -10
-10 -10 8 0 16 -4 21 -12 16 -8 -5 -7 0 2 11 8 10 10 16 5 13 -6 -4 -17 -3
-25 3 -11 6 -11 9 -2 9 10 0 10 3 0 14 -7 8 -16 12 -20 9 -4 -2 -5 4 -1 13 5
13 3 15 -8 9 -8 -4 -11 -5 -7 0 4 4 2 15 -5 23 -10 13 -9 14 2 7 11 -6 13 -4
8 7 -3 9 0 21 6 27 7 7 8 12 2 11 -5 -2 -12 -1 -15 0 -24 9 -38 6 -33 -7z"/>
</g>
</svg>
